<svg width="56" height="56" viewBox="0 0 56 56" fill="none" xmlns="http://www.w3.org/2000/svg">
<g clip-path="url(#clip0_11248_14516)">
<path d="M30.8 29.75H23.3333C23.1786 29.75 23.0303 29.8115 22.9209 29.9209C22.8115 30.0302 22.75 30.1786 22.75 30.3333V34.0667C22.75 34.2214 22.8115 34.3697 22.9209 34.4791C23.0303 34.5885 23.1786 34.65 23.3333 34.65H30.8C31.4498 34.65 32.0729 34.3919 32.5324 33.9324C32.9919 33.4729 33.25 32.8498 33.25 32.2C33.25 31.5502 32.9919 30.927 32.5324 30.4676C32.0729 30.0081 31.4498 29.75 30.8 29.75ZM33.25 23.8C33.2504 23.4835 33.1864 23.1703 33.0619 22.8793C32.9374 22.5883 32.755 22.3257 32.5259 22.1074C32.2967 21.8892 32.0255 21.7198 31.7288 21.6096C31.4321 21.4995 31.1161 21.4508 30.8 21.4667H23.3333C23.1786 21.4667 23.0303 21.5281 22.9209 21.6375C22.8115 21.7469 22.75 21.8953 22.75 22.05V25.6667C22.75 25.8214 22.8115 25.9697 22.9209 26.0791C23.0303 26.1885 23.1786 26.25 23.3333 26.25H30.8C31.1262 26.2668 31.4522 26.2149 31.757 26.0977C32.0619 25.9805 32.3387 25.8006 32.5697 25.5697C32.8006 25.3387 32.9805 25.0619 33.0977 24.757C33.2149 24.4522 33.2668 24.1262 33.25 23.8Z" fill="url(#paint0_linear_11248_14516)"/>
<g filter="url(#filter0_d_11248_14516)">
<path d="M53.6667 29.1667C54.2855 29.1667 54.879 28.9208 55.3166 28.4832C55.7542 28.0457 56 27.4522 56 26.8333C56 26.2145 55.7542 25.621 55.3166 25.1834C54.879 24.7458 54.2855 24.5 53.6667 24.5H48.4167C48.262 24.5 48.1136 24.4385 48.0042 24.3291C47.8948 24.2197 47.8333 24.0714 47.8333 23.9167V20.4167C47.8333 20.262 47.8948 20.1136 48.0042 20.0042C48.1136 19.8948 48.262 19.8333 48.4167 19.8333H53.6667C54.2855 19.8333 54.879 19.5875 55.3166 19.1499C55.7542 18.7123 56 18.1188 56 17.5C56 16.8812 55.7542 16.2877 55.3166 15.8501C54.879 15.4125 54.2855 15.1667 53.6667 15.1667H48.4167C48.262 15.1667 48.1136 15.1052 48.0042 14.9958C47.8948 14.8864 47.8333 14.738 47.8333 14.5833V10.8033C47.8272 10.1059 47.5475 9.43882 47.0543 8.94566C46.5612 8.4525 45.8941 8.17276 45.1967 8.16667H41.4167C41.262 8.16667 41.1136 8.10521 41.0042 7.99581C40.8948 7.88642 40.8333 7.73804 40.8333 7.58333V2.33333C40.8333 1.71449 40.5875 1.121 40.1499 0.683417C39.7123 0.245833 39.1188 0 38.5 0C37.8812 0 37.2877 0.245833 36.8501 0.683417C36.4125 1.121 36.1667 1.71449 36.1667 2.33333V7.58333C36.1667 7.73804 36.1052 7.88642 35.9958 7.99581C35.8864 8.10521 35.738 8.16667 35.5833 8.16667L29.75 8.16667C29.5953 8.16667 29.4469 8.10521 29.3375 7.99581C29.2281 7.88642 29.1667 7.73804 29.1667 7.58333V2.33333C29.1667 1.71449 28.9208 1.121 28.4832 0.683417C28.0457 0.245833 27.4522 0 26.8333 0C26.2145 0 25.621 0.245833 25.1834 0.683417C24.7458 1.121 24.5 1.71449 24.5 2.33333V7.58333C24.5 7.73804 24.4385 7.88642 24.3291 7.99581C24.2197 8.10521 24.0714 8.16667 23.9167 8.16667H20.4167C20.262 8.16667 20.1136 8.10521 20.0042 7.99581C19.8948 7.88642 19.8333 7.73804 19.8333 7.58333V2.33333C19.8333 1.71449 19.5875 1.121 19.1499 0.683417C18.7123 0.245833 18.1188 0 17.5 0C16.8812 0 16.2877 0.245833 15.8501 0.683417C15.4125 1.121 15.1667 1.71449 15.1667 2.33333V7.58333C15.1667 7.73804 15.1052 7.88642 14.9958 7.99581C14.8864 8.10521 14.738 8.16667 14.5833 8.16667H10.8033C10.1059 8.17276 9.43882 8.4525 8.94566 8.94566C8.4525 9.43882 8.17276 10.1059 8.16667 10.8033V14.5833C8.16667 14.738 8.10521 14.8864 7.99581 14.9958C7.88642 15.1052 7.73804 15.1667 7.58333 15.1667H2.33333C1.71449 15.1667 1.121 15.4125 0.683417 15.8501C0.245833 16.2877 0 16.8812 0 17.5C0 18.1188 0.245833 18.7123 0.683417 19.1499C1.121 19.5875 1.71449 19.8333 2.33333 19.8333H7.58333C7.73804 19.8333 7.88642 19.8948 7.99581 20.0042C8.10521 20.1136 8.16667 20.262 8.16667 20.4167V26.25C8.16667 26.4047 8.10521 26.5531 7.99581 26.6625C7.88642 26.7719 7.73804 26.8333 7.58333 26.8333H2.33333C1.71449 26.8333 1.121 27.0792 0.683417 27.5168C0.245833 27.9543 0 28.5478 0 29.1667C0 29.7855 0.245833 30.379 0.683417 30.8166C1.121 31.2542 1.71449 31.5 2.33333 31.5H7.58333C7.73804 31.5 7.88642 31.5615 7.99581 31.6709C8.10521 31.7802 8.16667 31.9286 8.16667 32.0833V35.5833C8.16667 35.738 8.10521 35.8864 7.99581 35.9958C7.88642 36.1052 7.73804 36.1667 7.58333 36.1667H2.33333C1.71449 36.1667 1.121 36.4125 0.683417 36.8501C0.245833 37.2877 0 37.8812 0 38.5C0 39.1188 0.245833 39.7123 0.683417 40.1499C1.121 40.5875 1.71449 40.8333 2.33333 40.8333H7.58333C7.73804 40.8333 7.88642 40.8948 7.99581 41.0042C8.10521 41.1136 8.16667 41.262 8.16667 41.4167V45.1967C8.17276 45.8941 8.4525 46.5612 8.94566 47.0543C9.43882 47.5475 10.1059 47.8272 10.8033 47.8333H14.5833C14.738 47.8333 14.8864 47.8948 14.9958 48.0042C15.1052 48.1136 15.1667 48.262 15.1667 48.4167V53.6667C15.1667 54.2855 15.4125 54.879 15.8501 55.3166C16.2877 55.7542 16.8812 56 17.5 56C18.1188 56 18.7123 55.7542 19.1499 55.3166C19.5875 54.879 19.8333 54.2855 19.8333 53.6667V48.4167C19.8333 48.262 19.8948 48.1136 20.0042 48.0042C20.1136 47.8948 20.262 47.8333 20.4167 47.8333H26.25C26.4047 47.8333 26.5531 47.8948 26.6625 48.0042C26.7719 48.1136 26.8333 48.262 26.8333 48.4167V53.6667C26.8333 54.2855 27.0792 54.879 27.5168 55.3166C27.9543 55.7542 28.5478 56 29.1667 56C29.7855 56 30.379 55.7542 30.8166 55.3166C31.2542 54.879 31.5 54.2855 31.5 53.6667V48.4167C31.5 48.262 31.5615 48.1136 31.6709 48.0042C31.7802 47.8948 31.9286 47.8333 32.0833 47.8333H35.5833C35.738 47.8333 35.8864 47.8948 35.9958 48.0042C36.1052 48.1136 36.1667 48.262 36.1667 48.4167V53.6667C36.1667 54.2855 36.4125 54.879 36.8501 55.3166C37.2877 55.7542 37.8812 56 38.5 56C39.1188 56 39.7123 55.7542 40.1499 55.3166C40.5875 54.879 40.8333 54.2855 40.8333 53.6667V48.4167C40.8333 48.262 40.8948 48.1136 41.0042 48.0042C41.1136 47.8948 41.262 47.8333 41.4167 47.8333H45.1967C45.8941 47.8272 46.5612 47.5475 47.0543 47.0543C47.5475 46.5612 47.8272 45.8941 47.8333 45.1967V41.4167C47.8333 41.262 47.8948 41.1136 48.0042 41.0042C48.1136 40.8948 48.262 40.8333 48.4167 40.8333H53.6667C54.2855 40.8333 54.879 40.5875 55.3166 40.1499C55.7542 39.7123 56 39.1188 56 38.5C56 37.8812 55.7542 37.2877 55.3166 36.8501C54.879 36.4125 54.2855 36.1667 53.6667 36.1667H48.4167C48.262 36.1667 48.1136 36.1052 48.0042 35.9958C47.8948 35.8864 47.8333 35.738 47.8333 35.5833V29.75C47.8333 29.5953 47.8948 29.4469 48.0042 29.3375C48.1136 29.2281 48.262 29.1667 48.4167 29.1667H53.6667ZM19.25 19.6C19.256 19.1377 19.4424 18.6961 19.7692 18.3692C20.0961 18.0424 20.5378 17.856 21 17.85H21.4667C21.6214 17.85 21.7697 17.7885 21.8791 17.6791C21.9885 17.5697 22.05 17.4214 22.05 17.2667V15.4C22.05 14.9359 22.2344 14.4908 22.5626 14.1626C22.8908 13.8344 23.3359 13.65 23.8 13.65C24.2641 13.65 24.7092 13.8344 25.0374 14.1626C25.3656 14.4908 25.55 14.9359 25.55 15.4V17.2667C25.55 17.4214 25.6115 17.5697 25.7209 17.6791C25.8302 17.7885 25.9786 17.85 26.1333 17.85H28.4667C28.6214 17.85 28.7697 17.7885 28.8791 17.6791C28.9885 17.5697 29.05 17.4214 29.05 17.2667V15.4C29.05 14.9359 29.2344 14.4908 29.5626 14.1626C29.8908 13.8344 30.3359 13.65 30.8 13.65C31.2641 13.65 31.7092 13.8344 32.0374 14.1626C32.3656 14.4908 32.55 14.9359 32.55 15.4V17.7333C32.5515 17.8498 32.5879 17.9632 32.6544 18.0589C32.721 18.1545 32.8146 18.2281 32.9233 18.27C33.8248 18.609 34.6301 19.1625 35.2695 19.8827C35.9089 20.6029 36.3632 21.4681 36.593 22.4034C36.8228 23.3386 36.8212 24.3158 36.5883 25.2503C36.3555 26.1848 35.8984 27.0485 35.2567 27.7667C35.1993 27.8308 35.1675 27.9139 35.1675 28C35.1675 28.0861 35.1993 28.1692 35.2567 28.2333C35.8984 28.9515 36.3555 29.8152 36.5883 30.7497C36.8212 31.6842 36.8228 32.6614 36.593 33.5966C36.3632 34.5319 35.9089 35.3971 35.2695 36.1173C34.6301 36.8375 33.8248 37.391 32.9233 37.73C32.8146 37.7719 32.721 37.8455 32.6544 37.9411C32.5879 38.0368 32.5515 38.1502 32.55 38.2667V40.6C32.55 41.0641 32.3656 41.5092 32.0374 41.8374C31.7092 42.1656 31.2641 42.35 30.8 42.35C30.3359 42.35 29.8908 42.1656 29.5626 41.8374C29.2344 41.5092 29.05 41.0641 29.05 40.6V38.7333C29.05 38.5786 28.9885 38.4302 28.8791 38.3209C28.7697 38.2115 28.6214 38.15 28.4667 38.15H26.1333C25.9786 38.15 25.8302 38.2115 25.7209 38.3209C25.6115 38.4302 25.55 38.5786 25.55 38.7333V40.6C25.55 41.0641 25.3656 41.5092 25.0374 41.8374C24.7092 42.1656 24.2641 42.35 23.8 42.35C23.3359 42.35 22.8908 42.1656 22.5626 41.8374C22.2344 41.5092 22.05 41.0641 22.05 40.6V38.7333C22.05 38.5786 21.9885 38.4302 21.8791 38.3209C21.7697 38.2115 21.6214 38.15 21.4667 38.15H21C20.5378 38.144 20.0961 37.9576 19.7692 37.6308C19.4424 37.3039 19.256 36.8622 19.25 36.4V19.6Z" fill="url(#paint1_linear_11248_14516)"/>
</g>
</g>
<defs>
<filter id="filter0_d_11248_14516" x="-15" y="-11" width="96" height="96" filterUnits="userSpaceOnUse" color-interpolation-filters="sRGB">
<feFlood flood-opacity="0" result="BackgroundImageFix"/>
<feColorMatrix in="SourceAlpha" type="matrix" values="0 0 0 0 0 0 0 0 0 0 0 0 0 0 0 0 0 0 127 0" result="hardAlpha"/>
<feOffset dx="5" dy="9"/>
<feGaussianBlur stdDeviation="10"/>
<feComposite in2="hardAlpha" operator="out"/>
<feColorMatrix type="matrix" values="0 0 0 0 0.407843 0 0 0 0 0.835294 0 0 0 0 0.956863 0 0 0 0.4 0"/>
<feBlend mode="normal" in2="BackgroundImageFix" result="effect1_dropShadow_11248_14516"/>
<feBlend mode="normal" in="SourceGraphic" in2="effect1_dropShadow_11248_14516" result="shape"/>
</filter>
<linearGradient id="paint0_linear_11248_14516" x1="31.3811" y1="36.1431" x2="20.8696" y2="22.9646" gradientUnits="userSpaceOnUse">
<stop stop-color="#2F8BDD"/>
<stop offset="1" stop-color="#6FDEF7"/>
</linearGradient>
<linearGradient id="paint1_linear_11248_14516" x1="46.0193" y1="62.3412" x2="4.57072" y2="-2.8996" gradientUnits="userSpaceOnUse">
<stop stop-color="#2F8BDD"/>
<stop offset="1" stop-color="#6FDEF7"/>
</linearGradient>
<clipPath id="clip0_11248_14516">
<rect width="56" height="56" fill="white"/>
</clipPath>
</defs>
</svg>
