<svg width="56" height="56" viewBox="0 0 56 56" fill="none" xmlns="http://www.w3.org/2000/svg">
<g clip-path="url(#clip0_11248_14484)">
<g filter="url(#filter0_d_11248_14484)">
<path d="M21.2497 12.712C22.645 8.62863 28.287 8.50496 29.9413 12.341L30.0813 12.7143L31.9643 18.221C32.3959 19.4838 33.0932 20.6395 34.0093 21.6099C34.9255 22.5804 36.0391 23.3431 37.275 23.8466L37.7813 24.0356L43.288 25.9163C47.3713 27.3116 47.495 32.9536 43.6613 34.608L43.288 34.748L37.7813 36.631C36.518 37.0622 35.3619 37.7594 34.391 38.6756C33.4202 39.5917 32.6571 40.7054 32.1533 41.9416L31.9643 42.4456L30.0837 47.9546C28.6883 52.038 23.0463 52.1616 21.3943 48.328L21.2497 47.9546L19.369 42.448C18.9378 41.1847 18.2405 40.0285 17.3244 39.0577C16.4083 38.0868 15.2945 37.3237 14.0583 36.82L13.5543 36.631L8.04767 34.7503C3.962 33.355 3.83833 27.713 7.67433 26.061L8.04767 25.9163L13.5543 24.0356C14.8172 23.6041 15.9729 22.9067 16.9433 21.9906C17.9138 21.0745 18.6765 19.9609 19.18 18.725L19.369 18.221L21.2497 12.712ZM44.3333 4.66663C44.7699 4.66663 45.1976 4.78908 45.568 5.02006C45.9384 5.25104 46.2366 5.5813 46.4287 5.97329L46.5407 6.24629L47.3573 8.64029L49.7537 9.45696C50.1911 9.60558 50.5746 9.88073 50.8555 10.2475C51.1365 10.6143 51.3022 11.0563 51.3316 11.5173C51.3611 11.9784 51.2531 12.4379 51.0212 12.8375C50.7893 13.2371 50.444 13.5588 50.029 13.762L49.7537 13.874L47.3597 14.6906L46.543 17.087C46.3941 17.5243 46.1188 17.9076 45.7518 18.1883C45.3849 18.469 44.9429 18.6344 44.4818 18.6636C44.0208 18.6929 43.5614 18.5846 43.162 18.3525C42.7625 18.1204 42.4409 17.775 42.238 17.36L42.126 17.087L41.3093 14.693L38.913 13.8763C38.4755 13.7277 38.0921 13.4525 37.8111 13.0857C37.5302 12.7189 37.3645 12.277 37.335 11.8159C37.3055 11.3548 37.4136 10.8954 37.6455 10.4958C37.8774 10.0962 38.2227 9.77443 38.6377 9.57129L38.913 9.45929L41.307 8.64263L42.1237 6.24629C42.281 5.78529 42.5787 5.38508 42.9749 5.10179C43.3712 4.8185 43.8462 4.66633 44.3333 4.66663Z" fill="url(#paint0_linear_11248_14484)"/>
</g>
</g>
<defs>
<filter id="filter0_d_11248_14484" x="-10.1125" y="-6.33337" width="86.449" height="86.4464" filterUnits="userSpaceOnUse" color-interpolation-filters="sRGB">
<feFlood flood-opacity="0" result="BackgroundImageFix"/>
<feColorMatrix in="SourceAlpha" type="matrix" values="0 0 0 0 0 0 0 0 0 0 0 0 0 0 0 0 0 0 127 0" result="hardAlpha"/>
<feOffset dx="5" dy="9"/>
<feGaussianBlur stdDeviation="10"/>
<feComposite in2="hardAlpha" operator="out"/>
<feColorMatrix type="matrix" values="0 0 0 0 0.407843 0 0 0 0 0.835294 0 0 0 0 0.956863 0 0 0 0.4 0"/>
<feBlend mode="normal" in2="BackgroundImageFix" result="effect1_dropShadow_11248_14484"/>
<feBlend mode="normal" in="SourceGraphic" in2="effect1_dropShadow_11248_14484" result="shape"/>
</filter>
<linearGradient id="paint0_linear_11248_14484" x1="43.058" y1="56.3725" x2="8.68124" y2="2.26003" gradientUnits="userSpaceOnUse">
<stop stop-color="#2F8BDD"/>
<stop offset="1" stop-color="#6FDEF7"/>
</linearGradient>
<clipPath id="clip0_11248_14484">
<rect width="56" height="56" fill="white"/>
</clipPath>
</defs>
</svg>
