<svg width="61" height="72" viewBox="0 0 61 72" fill="none" xmlns="http://www.w3.org/2000/svg">
<path d="M17.0509 22.7799C15.9463 22.7799 15.0417 21.8826 15.1386 20.7823C15.6058 15.4729 17.9243 10.4708 21.7229 6.67223C25.9949 2.40021 31.789 0.000218733 37.8305 0.000219261C43.8721 0.000219789 49.6662 2.40021 53.9382 6.67223C57.7368 10.4708 60.0553 15.4729 60.5225 20.7823C60.6193 21.8826 59.7148 22.7799 58.6102 22.7799L37.8305 22.7799L17.0509 22.7799Z" fill="#6FDEF7"/>
<path d="M0 28.4409C0 27.3364 0.895431 26.4409 2 26.4409H40.8619C42.6248 26.4409 43.5255 28.5563 42.3036 29.8271L24.4068 48.4408L3.38902 68.7289C2.11925 69.9546 0 69.0548 0 67.2899V28.4409Z" fill="#2F8BDD"/>
</svg>
