<svg width="56" height="56" viewBox="0 0 56 56" fill="none" xmlns="http://www.w3.org/2000/svg">
<g clip-path="url(#clip0_11248_14609)">
<g filter="url(#filter0_d_11248_14609)">
<path d="M31.5 50.75H24.5C24.0359 50.75 23.5907 50.9344 23.2626 51.2626C22.9344 51.5908 22.75 52.0359 22.75 52.5C22.75 52.9642 22.9344 53.4093 23.2626 53.7375C23.5907 54.0657 24.0359 54.25 24.5 54.25H31.5C31.9641 54.25 32.4092 54.0657 32.7374 53.7375C33.0656 53.4093 33.25 52.9642 33.25 52.5C33.25 52.0359 33.0656 51.5908 32.7374 51.2626C32.4092 50.9344 31.9641 50.75 31.5 50.75ZM33.25 45.5H22.75C22.2859 45.5 21.8407 45.6844 21.5126 46.0126C21.1844 46.3408 21 46.7859 21 47.25C21 47.7142 21.1844 48.1593 21.5126 48.4875C21.8407 48.8157 22.2859 49 22.75 49H33.25C33.7141 49 34.1592 48.8157 34.4874 48.4875C34.8156 48.1593 35 47.7142 35 47.25C35 46.7859 34.8156 46.3408 34.4874 46.0126C34.1592 45.6844 33.7141 45.5 33.25 45.5ZM40.4053 6.85677C37.1164 3.56349 32.7108 1.75005 28 1.75005C25.7003 1.74457 23.4222 2.19348 21.2965 3.07099C19.1709 3.94851 17.2395 5.23734 15.6134 6.86346C13.9873 8.48958 12.6984 10.4209 11.8209 12.5466C10.9434 14.6723 10.4945 16.9504 10.5 19.25C10.5 24.3491 12.4545 29.119 15.8594 32.3357L16.3362 32.783C18.3061 34.6249 21 37.1482 21 39.375V42C21 42.4642 21.1844 42.9093 21.5126 43.2375C21.8407 43.5657 22.2859 43.75 22.75 43.75H25.375C25.6071 43.75 25.8296 43.6579 25.9937 43.4938C26.1578 43.3297 26.25 43.1071 26.25 42.875V30.0585C26.25 29.8815 26.1965 29.7087 26.0963 29.5629C25.9961 29.417 25.8541 29.3049 25.6889 29.2415C24.6784 28.8292 23.7184 28.3026 22.8276 27.6719C22.6275 27.5441 22.4554 27.3769 22.322 27.1804C22.1885 26.984 22.0964 26.7624 22.0513 26.5292C22.0062 26.2961 22.0091 26.0562 22.0597 25.8241C22.1103 25.5921 22.2076 25.3728 22.3457 25.1795C22.4838 24.9863 22.6597 24.8232 22.8629 24.7002C23.066 24.5771 23.2921 24.4967 23.5273 24.4638C23.7625 24.431 24.0019 24.4463 24.231 24.509C24.4601 24.5716 24.6741 24.6802 24.8598 24.8282C25.6692 25.4013 27.2278 26.25 28 26.25C28.7722 26.25 30.3308 25.3991 31.1423 24.8282C31.5202 24.5906 31.9746 24.5064 32.4125 24.5928C32.8504 24.6792 33.2387 24.9297 33.4981 25.293C33.7574 25.6562 33.8681 26.1049 33.8076 26.5471C33.747 26.9893 33.5198 27.3917 33.1723 27.6719C32.2815 28.3015 31.3215 28.827 30.3111 29.2382C30.1459 29.3017 30.0039 29.4137 29.9037 29.5596C29.8035 29.7055 29.7499 29.8783 29.75 30.0552V42.875C29.75 43.1071 29.8422 43.3297 30.0063 43.4938C30.1704 43.6579 30.3929 43.75 30.625 43.75H33.25C33.7141 43.75 34.1592 43.5657 34.4874 43.2375C34.8156 42.9093 35 42.4642 35 42V39.375C35 37.2007 37.6644 34.6796 39.6101 32.8377L40.1472 32.328C43.6494 28.9844 45.5 24.4574 45.5 19.25C45.5116 16.9502 45.0673 14.6708 44.1928 12.5436C43.3184 10.4164 42.0311 8.48356 40.4053 6.85677Z" fill="url(#paint0_linear_11248_14609)"/>
</g>
</g>
<defs>
<filter id="filter0_d_11248_14609" x="-4.50006" y="-9.25" width="75.0002" height="92.5" filterUnits="userSpaceOnUse" color-interpolation-filters="sRGB">
<feFlood flood-opacity="0" result="BackgroundImageFix"/>
<feColorMatrix in="SourceAlpha" type="matrix" values="0 0 0 0 0 0 0 0 0 0 0 0 0 0 0 0 0 0 127 0" result="hardAlpha"/>
<feOffset dx="5" dy="9"/>
<feGaussianBlur stdDeviation="10"/>
<feComposite in2="hardAlpha" operator="out"/>
<feColorMatrix type="matrix" values="0 0 0 0 0.407843 0 0 0 0 0.835294 0 0 0 0 0.956863 0 0 0 0.4 0"/>
<feBlend mode="normal" in2="BackgroundImageFix" result="effect1_dropShadow_11248_14609"/>
<feBlend mode="normal" in="SourceGraphic" in2="effect1_dropShadow_11248_14609" result="shape"/>
</filter>
<linearGradient id="paint0_linear_11248_14609" x1="39.2622" y1="60.1949" x2="-3.61326" y2="15.2034" gradientUnits="userSpaceOnUse">
<stop stop-color="#2F8BDD"/>
<stop offset="1" stop-color="#6FDEF7"/>
</linearGradient>
<clipPath id="clip0_11248_14609">
<rect width="56" height="56" fill="white"/>
</clipPath>
</defs>
</svg>
