<svg width="56" height="56" viewBox="0 0 56 56" fill="none" xmlns="http://www.w3.org/2000/svg">
<g clip-path="url(#clip0_11248_14555)">
<path d="M47.7295 8.27043L53.5955 9.44293C53.9105 9.50593 54.1695 9.73693 54.2605 10.0484C54.3065 10.1997 54.3106 10.3607 54.2723 10.5141C54.2341 10.6676 54.155 10.8078 54.0435 10.9199L49.238 15.7289C48.6622 16.3015 47.8835 16.6235 47.0715 16.6249H43.085L33.075 26.6384C33.266 27.3595 33.3011 28.113 33.178 28.8487C33.055 29.5844 32.7765 30.2855 32.3613 30.9051C31.946 31.5248 31.4035 32.0489 30.7698 32.4424C30.1361 32.836 29.4259 33.0899 28.6863 33.1875C27.9468 33.285 27.195 33.2238 26.4809 33.008C25.7669 32.7921 25.1071 32.4266 24.5454 31.9358C23.9837 31.4449 23.533 30.84 23.2235 30.1614C22.9139 29.4827 22.7525 28.7459 22.75 27.9999C22.7498 27.1943 22.9351 26.3995 23.2914 25.6769C23.6477 24.9544 24.1655 24.3235 24.8047 23.8332C25.4439 23.3429 26.1874 23.0062 26.9776 22.8493C27.7677 22.6924 28.5834 22.7195 29.3615 22.9284L39.375 12.9114V8.93193C39.375 8.11993 39.697 7.33943 40.271 6.76543L45.08 1.95643C45.1921 1.84488 45.3323 1.7658 45.4858 1.72759C45.6392 1.68938 45.8002 1.69347 45.9515 1.73943C46.263 1.83043 46.494 2.08943 46.557 2.40443L47.7295 8.27043Z" fill="url(#paint0_linear_11248_14555)"/>
<g filter="url(#filter0_d_11248_14555)">
<path d="M7 28C7.00359 31.0029 7.65115 33.9701 8.89898 36.7014C10.1468 39.4327 11.9659 41.8647 14.2335 43.8332C16.5012 45.8017 19.1646 47.261 22.0442 48.1126C24.9237 48.9643 27.9525 49.1884 30.926 48.77C33.8996 48.3516 36.7489 47.3004 39.2816 45.6872C41.8144 44.074 43.9717 41.9363 45.608 39.4185C47.2444 36.9007 48.3218 34.0612 48.7674 31.0916C49.2131 28.1219 49.0167 25.0913 48.1915 22.204C48.0756 21.8667 48.0296 21.5093 48.0563 21.1537C48.083 20.798 48.1817 20.4515 48.3466 20.1352C48.5115 19.819 48.739 19.5395 49.0153 19.314C49.2915 19.0885 49.6109 18.9215 49.9537 18.8233C50.2966 18.7251 50.6559 18.6977 51.0097 18.7428C51.3635 18.7879 51.7044 18.9045 52.0117 19.0855C52.319 19.2666 52.5862 19.5082 52.7971 19.7959C53.008 20.0835 53.1582 20.411 53.2385 20.7585C54.8363 26.3499 54.5328 32.3135 52.3756 37.7137C50.2183 43.1139 46.3294 47.6452 41.3189 50.5968C36.3085 53.5483 30.4599 54.7529 24.6909 54.0218C18.9219 53.2907 13.5588 50.6651 9.443 46.557C5.3317 42.4423 2.70331 37.0787 1.97051 31.3083C1.23771 25.5379 2.44199 19.6876 5.39428 14.6758C8.34656 9.66399 12.8797 5.77455 18.2819 3.61812C23.6841 1.4617 29.6495 1.1604 35.2415 2.76153C35.9073 2.95617 36.4691 3.40647 36.8039 4.01401C37.1388 4.62156 37.2195 5.33695 37.0285 6.00385C36.8375 6.67075 36.3903 7.23492 35.7846 7.57309C35.1789 7.91125 34.4639 7.9959 33.796 7.80853C30.669 6.9106 27.3761 6.75149 24.1771 7.34373C20.9781 7.93598 17.9605 9.26339 15.3622 11.2213C12.7639 13.1792 10.656 15.714 9.20485 18.6257C7.75368 21.5375 6.99888 24.7467 7 28Z" fill="url(#paint1_linear_11248_14555)"/>
</g>
<path d="M17.5 28.0001C17.5002 29.9131 18.0227 31.7898 19.0112 33.4278C19.9996 35.0657 21.4165 36.4026 23.109 37.2944C24.8015 38.1863 26.7053 38.599 28.6152 38.4883C30.525 38.3776 32.3684 37.7475 33.9465 36.6661C35.5243 35.5819 36.7756 34.087 37.5653 32.3431C38.3549 30.5992 38.6527 28.6725 38.4265 26.7716C38.3653 26.3103 38.4282 25.841 38.6087 25.4121C38.7891 24.9832 39.0807 24.6101 39.4532 24.3313C39.8258 24.0525 40.2659 23.878 40.7283 23.8259C41.1907 23.7737 41.6587 23.8458 42.084 24.0346C42.5092 24.2209 42.8774 24.5167 43.151 24.8918C43.4246 25.2668 43.5939 25.7078 43.6415 26.1696C44.0218 29.4179 43.3814 32.7041 41.8093 35.572C40.2372 38.4399 37.8112 40.7472 34.8682 42.1738C31.9252 43.6003 28.6111 44.0753 25.3858 43.5328C22.1606 42.9903 19.1842 41.4572 16.8699 39.1464C14.5555 36.8355 13.0179 33.8615 12.4705 30.6371C11.9231 27.4127 12.3931 24.0979 13.8151 21.1527C15.2372 18.2075 17.5409 15.778 20.4064 14.2016C23.2719 12.6251 26.5571 11.9797 29.806 12.3551C30.1539 12.3873 30.4918 12.4887 30.8 12.6533C31.1082 12.8179 31.3804 13.0423 31.6007 13.3135C31.8211 13.5846 31.985 13.8971 32.0831 14.2324C32.1811 14.5677 32.2112 14.9193 32.1716 15.2664C32.132 15.6135 32.0234 15.9493 31.8524 16.2539C31.6814 16.5586 31.4512 16.826 31.1755 17.0406C30.8998 17.2551 30.584 17.4125 30.2466 17.5034C29.9093 17.5943 29.5572 17.617 29.211 17.5701C27.7398 17.3993 26.2491 17.5416 24.8368 17.9878C23.4245 18.434 22.1226 19.1739 21.0166 20.1589C19.9106 21.144 19.0255 22.3519 18.4194 23.7033C17.8133 25.0547 17.5 26.519 17.5 28.0001Z" fill="url(#paint2_linear_11248_14555)"/>
</g>
<defs>
<filter id="filter0_d_11248_14555" x="-13.2387" y="-9.25269" width="92.4878" height="92.4829" filterUnits="userSpaceOnUse" color-interpolation-filters="sRGB">
<feFlood flood-opacity="0" result="BackgroundImageFix"/>
<feColorMatrix in="SourceAlpha" type="matrix" values="0 0 0 0 0 0 0 0 0 0 0 0 0 0 0 0 0 0 127 0" result="hardAlpha"/>
<feOffset dx="5" dy="9"/>
<feGaussianBlur stdDeviation="10"/>
<feComposite in2="hardAlpha" operator="out"/>
<feColorMatrix type="matrix" values="0 0 0 0 0.407843 0 0 0 0 0.835294 0 0 0 0 0.956863 0 0 0 0.4 0"/>
<feBlend mode="normal" in2="BackgroundImageFix" result="effect1_dropShadow_11248_14555"/>
<feBlend mode="normal" in="SourceGraphic" in2="effect1_dropShadow_11248_14555" result="shape"/>
</filter>
<linearGradient id="paint0_linear_11248_14555" x1="48.6755" y1="36.8029" x2="25.3433" y2="0.0573791" gradientUnits="userSpaceOnUse">
<stop stop-color="#2F8BDD"/>
<stop offset="1" stop-color="#6FDEF7"/>
</linearGradient>
<linearGradient id="paint1_linear_11248_14555" x1="44.8944" y1="60.1731" x2="6.05056" y2="-0.973483" gradientUnits="userSpaceOnUse">
<stop stop-color="#2F8BDD"/>
<stop offset="1" stop-color="#6FDEF7"/>
</linearGradient>
<linearGradient id="paint2_linear_11248_14555" x1="38.1342" y1="47.3179" x2="14.8194" y2="10.6199" gradientUnits="userSpaceOnUse">
<stop stop-color="#2F8BDD"/>
<stop offset="1" stop-color="#6FDEF7"/>
</linearGradient>
<clipPath id="clip0_11248_14555">
<rect width="56" height="56" fill="white"/>
</clipPath>
</defs>
</svg>
