<svg width="56" height="56" viewBox="0 0 56 56" fill="none" xmlns="http://www.w3.org/2000/svg">
<g clip-path="url(#clip0_11248_14583)">
<g filter="url(#filter0_d_11248_14583)">
<path d="M36.8427 36.4001C34.8617 35.6074 34.0707 33.4286 34.0707 33.4286C34.0707 33.4286 33.1782 33.9221 33.1782 32.5361C33.1782 31.1501 34.0707 33.4286 34.9632 28.0771C34.9632 28.0771 37.436 27.3824 36.9407 21.6371H36.3457C36.3457 21.6371 37.8332 15.4946 36.3457 13.4121C34.8582 11.3331 34.2667 9.94712 30.996 8.95487C27.7252 7.96262 28.917 8.16037 26.5387 8.26187C24.1605 8.36337 22.1777 9.64962 22.1777 10.3444C22.1777 10.3444 20.6902 10.4424 20.0987 11.0374C19.5037 11.6324 18.5132 14.4044 18.5132 15.0974C18.5132 15.7904 19.0085 20.4524 19.5037 21.4411L18.914 21.6406C18.417 27.3859 20.8915 28.0806 20.8915 28.0806C21.784 33.4321 22.6765 31.1536 22.6765 32.5396C22.6765 33.9256 21.784 33.4321 21.784 33.4321C21.784 33.4321 20.993 35.6109 19.012 36.4036C17.031 37.1964 6.03399 41.4541 5.13974 42.3466C4.24374 43.2391 4.34524 47.4006 4.34524 47.4006H51.5025C51.5025 47.4006 51.6075 43.2409 50.7115 42.3466C49.819 41.4541 38.8202 37.1946 36.8392 36.4036L36.8427 36.4001ZM15.0202 36.0991C14.8452 35.7841 14.7612 35.5566 14.7612 35.5566C14.7612 35.5566 14.0052 35.9766 14.0052 34.8006C14.0052 33.6246 14.7612 35.5566 15.5172 31.0206C15.5172 31.0206 17.6172 30.4344 17.1972 25.5641H16.6897C16.6897 25.5641 16.9417 24.5316 17.1062 23.2296C17.0988 22.6479 17.1204 22.0662 17.171 21.4866L17.2375 20.7411C17.2025 19.8801 17.0502 19.0961 16.6915 18.5956C15.4315 16.8334 14.9275 15.6556 12.159 14.8156C9.38699 13.9756 10.3915 14.1436 8.37899 14.2294C6.36299 14.3169 4.68299 15.4054 4.68299 15.9969C4.68299 15.9969 3.42299 16.0791 2.91899 16.5831C2.44649 17.0556 1.68524 19.1416 1.59424 19.8819L1.59424 20.3719C1.67824 21.5164 2.04924 24.6594 2.41674 25.3996L1.91624 25.5676C1.49624 30.4361 3.59624 31.0241 3.59624 31.0241C4.34874 35.5566 5.10649 33.6281 5.10649 34.8041C5.10649 35.9801 4.35049 35.5566 4.35049 35.5566C4.35049 35.5566 3.68024 37.4081 2.00024 38.0766L1.59424 38.2376L1.59424 47.3971H2.60049C2.54799 45.1606 2.73524 42.2749 3.90599 41.1076C4.53074 40.4864 6.57299 39.4626 15.0237 36.0991H15.0202ZM54.0977 20.2511C54.0277 19.5896 53.8755 18.9999 53.5867 18.5956C52.3302 16.8316 51.8245 15.6556 49.0542 14.8156C46.284 13.9756 47.292 14.1436 45.2742 14.2294C43.2617 14.3169 41.5817 15.4054 41.5817 15.9969C41.5817 15.9969 40.3217 16.0791 39.8177 16.5831C39.3452 17.0591 38.5752 19.1591 38.4912 19.8906H38.549L38.689 21.4901C38.724 21.8926 38.7275 22.2514 38.7362 22.6171C38.8937 23.7826 39.1037 24.9796 39.3137 25.3996L38.8132 25.5659C38.3932 30.4344 40.4932 31.0224 40.4932 31.0224C41.2492 35.5549 42.0035 33.6264 42.0035 34.8024C42.0035 35.9784 41.251 35.5549 41.251 35.5549C41.251 35.5549 41.1565 35.8051 40.964 36.1499C49.3115 39.4749 51.3362 40.4899 51.954 41.1076C53.1265 42.2766 53.3085 45.1606 53.2577 47.3989H54.0977V38.1151L54.0102 38.0766C52.3302 37.4064 51.6582 35.5566 51.6582 35.5566C51.6582 35.5566 50.9005 35.9766 50.9005 34.8041C50.9005 33.6316 51.6582 35.5566 52.4125 31.0241C52.4125 31.0241 53.8195 30.6216 54.0977 27.8041V25.6551C54.0977 25.6248 54.096 25.5956 54.0925 25.5676H53.585C53.585 25.5676 53.963 24.0101 54.0977 22.3091V20.2511Z" fill="url(#paint0_linear_11248_14583)"/>
</g>
</g>
<defs>
<filter id="filter0_d_11248_14583" x="-13.4058" y="-2.8252" width="92.5035" height="79.2258" filterUnits="userSpaceOnUse" color-interpolation-filters="sRGB">
<feFlood flood-opacity="0" result="BackgroundImageFix"/>
<feColorMatrix in="SourceAlpha" type="matrix" values="0 0 0 0 0 0 0 0 0 0 0 0 0 0 0 0 0 0 127 0" result="hardAlpha"/>
<feOffset dx="5" dy="9"/>
<feGaussianBlur stdDeviation="10"/>
<feComposite in2="hardAlpha" operator="out"/>
<feColorMatrix type="matrix" values="0 0 0 0 0.407843 0 0 0 0 0.835294 0 0 0 0 0.956863 0 0 0 0.4 0"/>
<feBlend mode="normal" in2="BackgroundImageFix" result="effect1_dropShadow_11248_14583"/>
<feBlend mode="normal" in="SourceGraphic" in2="effect1_dropShadow_11248_14583" result="shape"/>
</filter>
<linearGradient id="paint0_linear_11248_14583" x1="44.7402" y1="51.8424" x2="19.8923" y2="-0.507424" gradientUnits="userSpaceOnUse">
<stop stop-color="#2F8BDD"/>
<stop offset="1" stop-color="#6FDEF7"/>
</linearGradient>
<clipPath id="clip0_11248_14583">
<rect width="56" height="56" fill="white"/>
</clipPath>
</defs>
</svg>
