<svg width="40" height="40" viewBox="0 0 40 40" fill="none" xmlns="http://www.w3.org/2000/svg">
<g clip-path="url(#clip0_11248_14396)">
<path opacity="0.987" fill-rule="evenodd" clip-rule="evenodd" d="M14.4759 6.60026C15.8346 6.06849 16.6634 5.84642 18.2102 5.59966C20.9797 5.28016 23.7791 5.84981 26.2036 7.22625C25.2358 8.79858 24.2898 10.3842 23.366 11.9828C20.4012 10.5824 17.5776 10.8324 14.8954 12.7326C12.9803 14.3225 11.8955 16.3579 11.641 18.839C9.95968 18.1711 8.29014 17.4739 6.63311 16.7479C6.5249 16.7234 6.4117 16.7341 6.31003 16.7786C7.35775 12.0185 10.0789 8.6253 14.4735 6.59884" fill="#F44336"/>
<path opacity="0.997" fill-rule="evenodd" clip-rule="evenodd" d="M6.30616 16.7796C6.41115 16.7335 6.51948 16.7231 6.63117 16.7484C8.2882 17.4744 9.95774 18.1716 11.639 18.8395C11.6535 19.7758 11.7545 20.7088 11.9406 21.6265C12.2222 22.4869 12.5903 23.3069 13.0449 24.0865L9.61777 28.7214C6.6585 25.2656 5.55463 21.285 6.30616 16.7796Z" fill="#FFC107"/>
<path opacity="0.999" fill-rule="evenodd" clip-rule="evenodd" d="M31.3849 27.3903C29.708 26.5575 27.9873 25.8159 26.2303 25.1687C27.4312 23.7261 27.9457 22.0505 27.7739 20.1419L20.5159 22.0867L19.1654 17.0465C23.3418 15.8902 27.535 14.8045 31.7451 13.7896C33.6928 17.8851 33.8173 22.0149 32.1185 26.1792C31.8952 26.5948 31.6491 26.9993 31.3849 27.3903Z" fill="#448AFF"/>
<path opacity="0.993" fill-rule="evenodd" clip-rule="evenodd" d="M13.0455 24.0884C15.6845 27.601 19.0812 28.6607 23.2354 27.2673C24.3845 26.8123 25.4104 26.0934 26.2303 25.1687C27.9891 25.8183 29.7073 26.5588 31.385 27.3903C29.752 29.8993 27.3169 31.7809 24.4771 32.7281C23.8354 32.9562 23.1764 33.1328 22.5066 33.256C17.4341 33.994 13.1378 32.4825 9.61778 28.7214L13.0455 24.0884Z" fill="#43A047"/>
</g>
<defs>
<clipPath id="clip0_11248_14396">
<rect width="32" height="32" fill="white" transform="translate(0 8.28221) rotate(-15)"/>
</clipPath>
</defs>
</svg>
