<svg width="44" height="44" viewBox="0 0 44 44" fill="none" xmlns="http://www.w3.org/2000/svg">
<g clip-path="url(#clip0_11248_14411)">
<path d="M14.98 32.6095L20.8213 22.492C21.1004 22.6885 21.3753 22.8657 21.6733 23.0377C23.0855 23.8531 24.6278 24.2509 26.1368 24.2399L19.7248 35.3458C19.1768 36.295 18.547 36.8659 17.8382 37.0802C17.1331 37.2936 16.4187 37.1921 15.7132 36.7848C15.0204 36.3848 14.6043 35.8336 14.4301 35.0925C14.2623 34.3752 14.4407 33.5436 14.98 32.6095ZM29.0045 8.37955C32.5386 9.04507 35.8518 11.0318 37.1442 14.5986C37.3659 15.2947 37.59 16.1384 37.4378 16.8927C37.2305 17.8384 36.5973 16.2951 36.503 16.0959C35.9851 15.0995 35.4209 14.1887 34.6781 13.358C30.5915 9.02019 24.3693 9.00274 19.0589 11.4886C16.7815 12.6278 14.8718 14.1088 12.9917 15.8639C12.7878 16.0571 12.5559 16.3281 12.3097 16.4585C12.0451 16.6182 12.6183 15.796 12.6343 15.7683C13.24 14.9433 13.916 14.1989 14.6348 13.4793C18.5966 9.71596 23.7414 7.65026 29.0057 8.38021M29.9901 19.8166C29.4561 20.7414 28.5766 21.4163 27.545 21.6927C26.5135 21.9691 25.4144 21.8244 24.4895 21.2904C23.5647 20.7565 22.8898 19.877 22.6134 18.8454C22.337 17.8139 22.4817 16.7148 23.0157 15.7899C23.5496 14.865 24.4291 14.1902 25.4607 13.9138C26.4922 13.6374 27.5913 13.7821 28.5162 14.316C29.4411 14.85 30.1159 15.7295 30.3923 16.7611C30.6687 17.7926 30.524 18.8917 29.9901 19.8166Z" fill="#15388F"/>
</g>
<defs>
<clipPath id="clip0_11248_14411">
<rect width="32" height="32" fill="white" transform="translate(16) rotate(30)"/>
</clipPath>
</defs>
</svg>
