<svg width="44" height="44" viewBox="0 0 44 44" fill="none" xmlns="http://www.w3.org/2000/svg">
<g clip-path="url(#clip0_11248_14404)">
<path d="M37.2176 12.25L22.4952 3.75C18.908 1.67893 14.3211 2.908 12.25 6.49519L3.75 21.2176C1.67893 24.8048 2.908 29.3917 6.49519 31.4628L21.2176 39.9628C24.8048 42.0339 29.3917 40.8048 31.4628 37.2176L39.9628 22.4952C42.0339 18.908 40.8048 14.3211 37.2176 12.25Z" fill="white"/>
<path d="M37.2176 12.25L22.4952 3.75C18.908 1.67893 14.3211 2.908 12.25 6.49519L3.75 21.2176C1.67893 24.8048 2.908 29.3917 6.49519 31.4628L21.2176 39.9628C24.8048 42.0339 29.3917 40.8048 31.4628 37.2176L39.9628 22.4952C42.0339 18.908 40.8048 14.3211 37.2176 12.25Z" fill="#0A66C2"/>
<path d="M22.3907 35.1098L25.5593 36.9392C25.6741 37.0054 25.8105 37.0234 25.9386 36.9891C26.0667 36.9548 26.1759 36.8711 26.2422 36.7562L30.109 30.0626C32.1292 26.5635 32.928 23.4387 28.8389 21.0778C27.3179 20.1226 25.3894 20.0776 23.8259 20.9589C23.8183 20.9632 23.8095 20.9648 23.8008 20.9636C23.7922 20.9624 23.7842 20.9584 23.778 20.9522C23.7719 20.946 23.7679 20.938 23.7667 20.9293C23.7656 20.9207 23.7673 20.9119 23.7716 20.9043L24.5268 19.5963C24.5931 19.4814 24.611 19.3449 24.5767 19.2169C24.5424 19.0888 24.4586 18.9796 24.3437 18.9133L21.3368 17.1772C21.222 17.1109 21.0855 17.0929 20.9574 17.1272C20.8293 17.1616 20.7201 17.2454 20.6538 17.3602L13.6525 29.4867C13.5862 29.6016 13.5683 29.738 13.6026 29.8661C13.6369 29.9942 13.7207 30.1034 13.8355 30.1697L17.0039 31.999C17.1187 32.0653 17.2552 32.0833 17.3833 32.0489C17.5114 32.0146 17.6206 31.9308 17.6869 31.816L21.1477 25.8217C22.1263 24.1268 23.3955 22.6709 25.4968 23.8841C27.5682 25.0801 26.4753 27.035 25.6054 28.5417L22.2077 34.4268C22.1414 34.5416 22.1234 34.6781 22.1577 34.8062C22.1921 34.9343 22.2759 35.0435 22.3907 35.1098ZM16.3869 8.82992C15.6454 10.1142 16.0926 11.7814 17.377 12.523C18.6612 13.2643 20.3283 12.8169 21.0697 11.5328C21.8109 10.2486 21.3642 8.5818 20.0799 7.84037C18.7954 7.09874 17.1284 7.5456 16.3869 8.82992ZM7.26167 26.375L10.4342 28.2067C10.5491 28.273 10.6856 28.291 10.8137 28.2567C10.9417 28.2223 11.051 28.1385 11.1173 28.0237L18.1188 15.8966C18.1851 15.7818 18.2031 15.6453 18.1688 15.5172C18.1344 15.3891 18.0506 15.2799 17.9358 15.2136L14.7632 13.3819C14.6484 13.3156 14.5119 13.2977 14.3838 13.332C14.2557 13.3663 14.1465 13.4501 14.0802 13.565L7.07866 25.692C7.01235 25.8069 6.99438 25.9433 7.02871 26.0714C7.06303 26.1995 7.14683 26.3087 7.26167 26.375Z" fill="white"/>
</g>
<defs>
<clipPath id="clip0_11248_14404">
<rect width="32" height="32" fill="white" transform="translate(16) rotate(30)"/>
</clipPath>
</defs>
</svg>
