<svg width="155" height="48" viewBox="0 0 155 48" fill="none" xmlns="http://www.w3.org/2000/svg">
<g opacity="0.84">
<path fill-rule="evenodd" clip-rule="evenodd" d="M20 44C31.0457 44 40 35.0457 40 24C40 12.9543 31.0457 4 20 4C8.95428 4 0 12.9543 0 24C0 35.0457 8.95428 44 20 44ZM26.2393 13.3168C26.543 12.2381 25.4961 11.6001 24.54 12.2813L11.1931 21.7896C10.1562 22.5283 10.3193 24 11.4381 24H14.9527V23.9728H21.8025L16.2212 25.9421L13.7607 34.6832C13.457 35.762 14.5038 36.3999 15.46 35.7187L28.8069 26.2105C29.8438 25.4718 29.6806 24 28.5619 24H23.2321L26.2393 13.3168Z" fill="white"/>
</g>
<g opacity="0.84">
<path d="M128.997 16.872C129.445 17.2827 129.986 17.488 130.621 17.488C131.274 17.488 131.815 17.2827 132.245 16.872C132.674 16.4613 132.889 15.92 132.889 15.248C132.889 14.576 132.674 14.0347 132.245 13.624C131.815 13.2133 131.274 13.008 130.621 13.008C129.986 13.008 129.445 13.2133 128.997 13.624C128.567 14.0347 128.353 14.576 128.353 15.248C128.353 15.92 128.567 16.4613 128.997 16.872Z" fill="white"/>
<path fill-rule="evenodd" clip-rule="evenodd" d="M61.984 32.384C61.1067 32.7947 60.08 33 58.904 33H50V13.4H58.792C59.9867 13.4 61.0227 13.6053 61.9 14.016C62.796 14.408 63.4867 14.9773 63.972 15.724C64.476 16.452 64.728 17.3293 64.728 18.356V18.636C64.728 19.532 64.56 20.2693 64.224 20.848C63.888 21.408 63.4867 21.8467 63.02 22.164C62.572 22.4627 62.1427 22.6773 61.732 22.808V23.312C62.1427 23.424 62.5907 23.6387 63.076 23.956C63.5613 24.2547 63.972 24.6933 64.308 25.272C64.6627 25.8507 64.84 26.6067 64.84 27.54V27.82C64.84 28.9027 64.588 29.836 64.084 30.62C63.58 31.3853 62.88 31.9733 61.984 32.384ZM60.416 25.412C59.9307 25.02 59.2773 24.824 58.456 24.824H53.696V29.64H58.456C59.2587 29.64 59.9027 29.444 60.388 29.052C60.892 28.66 61.144 28.1 61.144 27.372V27.092C61.144 26.364 60.9013 25.804 60.416 25.412ZM60.304 17.348C59.8187 16.956 59.184 16.76 58.4 16.76H53.696V21.464H58.4C59.1653 21.464 59.7907 21.268 60.276 20.876C60.78 20.484 61.032 19.9427 61.032 19.252V18.972C61.032 18.2627 60.7893 17.7213 60.304 17.348Z" fill="white"/>
<path fill-rule="evenodd" clip-rule="evenodd" d="M73.1755 33.392C71.7941 33.392 70.5528 33.112 69.4515 32.552C68.3501 31.992 67.4821 31.18 66.8475 30.116C66.2128 29.052 65.8955 27.7733 65.8955 26.28V25.832C65.8955 24.3387 66.2128 23.06 66.8475 21.996C67.4821 20.932 68.3501 20.12 69.4515 19.56C70.5528 19 71.7941 18.72 73.1755 18.72C74.5568 18.72 75.7981 19 76.8995 19.56C78.0008 20.12 78.8688 20.932 79.5035 21.996C80.1381 23.06 80.4555 24.3387 80.4555 25.832V26.28C80.4555 27.7733 80.1381 29.052 79.5035 30.116C78.8688 31.18 78.0008 31.992 76.8995 32.552C75.7981 33.112 74.5568 33.392 73.1755 33.392ZM73.1755 30.256C74.2581 30.256 75.1541 29.9107 75.8635 29.22C76.5728 28.5107 76.9275 27.5027 76.9275 26.196V25.916C76.9275 24.6093 76.5728 23.6107 75.8635 22.92C75.1728 22.2107 74.2768 21.856 73.1755 21.856C72.0928 21.856 71.1968 22.2107 70.4875 22.92C69.7781 23.6107 69.4235 24.6093 69.4235 25.916V26.196C69.4235 27.5027 69.7781 28.5107 70.4875 29.22C71.1968 29.9107 72.0928 30.256 73.1755 30.256Z" fill="white"/>
<path d="M93.6695 33C92.7548 33 92.0082 32.72 91.4295 32.16C90.8695 31.5813 90.5895 30.816 90.5895 29.864V22.024H87.1175V19.112H90.5895V14.8H94.1175V19.112H97.9255V22.024H94.1175V29.248C94.1175 29.808 94.3788 30.088 94.9015 30.088H97.5895V33H93.6695Z" fill="white"/>
<path d="M101.035 32.216C102.192 33 103.676 33.392 105.487 33.392C107.26 33.392 108.67 33 109.715 32.216C110.779 31.4133 111.311 30.284 111.311 28.828C111.311 27.8573 111.059 27.092 110.555 26.532C110.07 25.9533 109.398 25.5147 108.539 25.216C107.699 24.8987 106.756 24.6467 105.711 24.46L104.927 24.32C104.292 24.208 103.788 24.0493 103.415 23.844C103.042 23.62 102.855 23.284 102.855 22.836C102.855 22.4253 103.032 22.108 103.387 21.884C103.742 21.6413 104.255 21.52 104.927 21.52C105.599 21.52 106.159 21.6693 106.607 21.968C107.074 22.2667 107.382 22.7707 107.531 23.48L110.807 22.472C110.49 21.352 109.818 20.4467 108.791 19.756C107.764 19.0653 106.476 18.72 104.927 18.72C103.284 18.72 101.959 19.0933 100.951 19.84C99.943 20.568 99.439 21.6227 99.439 23.004C99.439 23.9187 99.6817 24.6653 100.167 25.244C100.652 25.8227 101.296 26.28 102.099 26.616C102.902 26.9333 103.788 27.1853 104.759 27.372L105.543 27.512C106.364 27.6613 106.962 27.8573 107.335 28.1C107.708 28.324 107.895 28.6507 107.895 29.08C107.895 29.5093 107.699 29.8733 107.307 30.172C106.915 30.452 106.308 30.592 105.487 30.592C104.946 30.592 104.442 30.5173 103.975 30.368C103.527 30.2 103.144 29.9293 102.827 29.556C102.528 29.1827 102.314 28.6693 102.183 28.016L98.935 28.856C99.1777 30.312 99.8777 31.432 101.035 32.216Z" fill="white"/>
<path d="M117.427 22.948C116.829 23.6573 116.531 24.656 116.531 25.944V33H113.003V13.4H116.531V20.82H117.035C117.184 20.5213 117.417 20.2227 117.735 19.924C118.052 19.6253 118.472 19.3827 118.995 19.196C119.536 18.9907 120.217 18.888 121.039 18.888C122.121 18.888 123.064 19.14 123.867 19.644C124.688 20.1293 125.323 20.8107 125.771 21.688C126.219 22.5467 126.443 23.5547 126.443 24.712V33H122.915V24.992C122.915 23.9467 122.653 23.1627 122.131 22.64C121.627 22.1173 120.899 21.856 119.947 21.856C118.864 21.856 118.024 22.22 117.427 22.948Z" fill="white"/>
<path d="M148.496 32.16C147.936 31.5813 147.656 30.816 147.656 29.864V22.024H140.718V33H137.19V22.024H133.662V19.112H137.19V16.536C137.19 15.584 137.47 14.828 138.03 14.268C138.609 13.6893 139.355 13.4 140.27 13.4H143.91V16.312H141.502C140.979 16.312 140.718 16.592 140.718 17.152V19.112H147.656V14.8H151.184V19.112H154.992V22.024H151.184V29.248C151.184 29.808 151.445 30.088 151.968 30.088H154.656V33H150.736C149.821 33 149.075 32.72 148.496 32.16Z" fill="white"/>
<path d="M128.857 19.112V33H132.385V19.112H128.857Z" fill="white"/>
<path d="M82.312 13.4V33H85.84V13.4H82.312Z" fill="white"/>
</g>
</svg>
