<svg width="887" height="1544" viewBox="0 0 887 1544" fill="none" xmlns="http://www.w3.org/2000/svg">
<g opacity="0.04">
<path d="M1052.12 823.145C946.557 814.089 850.559 753.734 797.075 661.094L712.379 514.399H783.858C839.558 514.407 891.027 544.129 918.881 592.363L1052.12 823.145Z" fill="url(#paint0_linear_11248_18178)"/>
<path d="M1047.79 1169.29H495.847L414.864 1029H876.775C932.483 1029 983.96 1058.72 1011.81 1106.97L1047.8 1169.3L1047.79 1169.29Z" fill="url(#paint1_linear_11248_18178)"/>
<path d="M876.744 997.825H609.099C669.725 910.929 769.992 857.977 876.968 857.97H1047.51L1011.77 919.869C983.913 968.111 932.444 997.825 876.736 997.825H876.744Z" fill="url(#paint2_linear_11248_18178)"/>
<path d="M384.418 820.845H312.453L588.427 342.846H750.416L519.457 742.881C491.603 791.123 440.126 820.845 384.418 820.845Z" fill="url(#paint3_linear_11248_18178)"/>
<path d="M681.206 525.083C726.152 621.035 721.875 734.35 668.391 826.997L582.213 976.263L546.477 914.372C518.623 866.13 518.623 806.694 546.477 758.451L681.206 525.083Z" fill="url(#paint4_linear_11248_18178)"/>
<path d="M555.222 991.904H393.149L312.374 852.025H384.448C440.156 852.025 491.633 881.755 519.479 929.997L555.215 991.904H555.222Z" fill="url(#paint5_linear_11248_18178)"/>
<path d="M783.803 483.218H712.324L793.369 342.853H954.894L918.849 405.262C890.996 453.504 839.519 483.226 783.811 483.218H783.803Z" fill="url(#paint6_linear_11248_18178)"/>
</g>
<defs>
<linearGradient id="paint0_linear_11248_18178" x1="991.569" y1="858.106" x2="772.951" y2="479.451" gradientUnits="userSpaceOnUse">
<stop stop-color="#2F8BDD"/>
<stop offset="1" stop-color="#6FDEF7"/>
</linearGradient>
<linearGradient id="paint1_linear_11248_18178" x1="934.991" y1="1185.19" x2="903.308" y2="960.221" gradientUnits="userSpaceOnUse">
<stop stop-color="#2F8BDD"/>
<stop offset="1" stop-color="#6FDEF7"/>
</linearGradient>
<linearGradient id="paint2_linear_11248_18178" x1="969.374" y1="1013.66" x2="924.853" y2="793.987" gradientUnits="userSpaceOnUse">
<stop stop-color="#2F8BDD"/>
<stop offset="1" stop-color="#6FDEF7"/>
</linearGradient>
<linearGradient id="paint3_linear_11248_18178" x1="672.359" y1="874.971" x2="306.347" y2="347.116" gradientUnits="userSpaceOnUse">
<stop stop-color="#2F8BDD"/>
<stop offset="1" stop-color="#6FDEF7"/>
</linearGradient>
<linearGradient id="paint4_linear_11248_18178" x1="678.766" y1="1027.35" x2="341.577" y2="808.081" gradientUnits="userSpaceOnUse">
<stop stop-color="#2F8BDD"/>
<stop offset="1" stop-color="#6FDEF7"/>
</linearGradient>
<linearGradient id="paint5_linear_11248_18178" x1="511.94" y1="1007.74" x2="438.122" y2="806.02" gradientUnits="userSpaceOnUse">
<stop stop-color="#2F8BDD"/>
<stop offset="1" stop-color="#6FDEF7"/>
</linearGradient>
<linearGradient id="paint6_linear_11248_18178" x1="911.662" y1="499.112" x2="837.325" y2="296.909" gradientUnits="userSpaceOnUse">
<stop stop-color="#2F8BDD"/>
<stop offset="1" stop-color="#6FDEF7"/>
</linearGradient>
</defs>
</svg>
